<svg xmlns="http://www.w3.org/2000/svg" enable-background="new 0 0 51 51" viewBox="0 0 51 51" id="checkout"><path fill="#F05B76" d="M17.01653,7.40208c0.24967,1.70098,1.83801,2.87853,3.54767,2.63014
						c1.70966-0.2484,2.89322-1.82868,2.64355-3.52966s-1.83801-2.87853-3.54767-2.63014S16.76686,5.7011,17.01653,7.40208z"></path><path fill="#010101" d="M20.56923,10.03038c-1.37632,0.19894-2.65845-0.51495-3.2466-1.67355
						c0.55283,0.26915,1.18807,0.38616,1.8468,0.29258c1.71735-0.24579,2.89365-1.8257,2.64667-3.5344
						c-0.0471-0.33937-0.15293-0.65538-0.30585-0.94796c0.88223,0.44473,1.54095,1.28733,1.69387,2.34065
						C23.46288,8.20468,22.27481,9.78459,20.56923,10.03038z" opacity=".1"></path><path fill="#F05B76" d="M33.97765,7.40208c-0.24967,1.70098-1.83801,2.87853-3.54767,2.63014
						c-1.70966-0.2484-2.89322-1.82868-2.64355-3.52966c0.24967-1.70098,1.83801-2.87853,3.54767-2.63014
						C33.04375,4.12082,34.22731,5.7011,33.97765,7.40208z"></path><path fill="#010101" d="M30.42494,10.03038c1.37632,0.19894,2.65845-0.51495,3.2466-1.67355
						c-0.55283,0.26915-1.18807,0.38616-1.8468,0.29258c-1.71735-0.24579-2.89365-1.8257-2.64667-3.5344
						c0.0471-0.33937,0.15293-0.65538,0.30585-0.94796c-0.88222,0.44473-1.54095,1.28733-1.69387,2.34065
						C27.53129,8.20468,28.71937,9.78459,30.42494,10.03038z" opacity=".1"></path><path fill="#C3DBF2" d="M5.35788,25.22698l3.52053,18.75121c0.34634,1.84484,1.96494,3.18223,3.85123,3.18223h25.53493
			c1.88629,0,3.50483-1.33739,3.85123-3.18223l3.52047-18.75121H5.35788z"></path><path fill="#010101" d="M45.63411,25.22854l-3.52296,18.75461c-0.34722,1.83888-1.96058,3.17989-3.84974,3.17989h-2.58347
				c0.08165,0,0.16336,0,0.23484-0.02028c0.11231,0,0.21446-0.02034,0.31655-0.04068c1.59299-0.2641,2.87964-1.5036,3.18597-3.11894
				l3.52296-18.75461H45.63411z" opacity=".1"></path><path fill="#FFF" d="M5.36012,25.22854l3.52296,18.75461c0.34722,1.83888,1.96058,3.17989,3.84974,3.17989h2.58347
				c-0.08165,0-0.16336,0-0.23484-0.02028c-0.11231,0-0.21446-0.02034-0.31655-0.04068
				c-1.59298-0.2641-2.87964-1.5036-3.18597-3.11894L8.05596,25.22854H5.36012z" opacity=".2"></path><path fill="#010101" d="M27.75631 30.42005h3.93726c.44276 0 .74944.44669.68606.98861l-.27391 2.82895c-.05741.49078-.43687.88242-.84846.88242h-3.66c-.41158 0-.7357-.39164-.72375-.88242l.05703-2.82895C26.94373 30.86674 27.31354 30.42005 27.75631 30.42005zM12.48604 38.56395h3.49748c.39331 0 .77058.35278.84159.78154l.30854 2.83729c.06501.39249-.18177.70621-.55028.70621h-3.27697c-.36851 0-.74826-.31372-.84962-.70621l-.48106-2.83729C11.865 38.91673 12.09273 38.56395 12.48604 38.56395zM27.50402 38.56395h3.49748c.39331 0 .67088.35278.62073.78154l-.21789 2.83729c-.04591.39249-.38134.70621-.74985.70621h-3.27697c-.36851 0-.65961-.31372-.65005-.70621l.04537-2.83729C26.78328 38.91673 27.11071 38.56395 27.50402 38.56395zM19.99908 38.56395h3.48937c.39331 0 .72075.35278.73122.78154l.04547 2.83729c.00958.39249-.2815.70621-.65001.70621h-3.26937c-.36851 0-.70391-.31372-.74978-.70621l-.2177-2.83729C19.32817 38.91673 19.60578 38.56395 19.99908 38.56395zM40.68863 31.40866l-.60461 2.82895c-.12672.49078-.56149.88242-.97308.88242h-3.66c-.41159 0-.68039-.39164-.59913-.88242l.38774-2.82895c.08973-.54192.52262-.98861.96539-.98861h3.93726C40.58495 30.42005 40.82855 30.86674 40.68863 31.40866zM19.30768 30.42005h3.92814c.44276 0 .8126.44669.82582.98861l.05715 2.82895c.01198.49078-.31212.88242-.7237.88242h-3.65152c-.41158 0-.79101-.39164-.84837-.88242l-.27367-2.82895C18.5582 30.86674 18.86492 30.42005 19.30768 30.42005zM35.00895 38.56395h3.49748c.39331 0 .62106.35278.51036.78154l-.48097 2.83729c-.10134.39249-.48108.70621-.84958.70621h-3.27697c-.36851 0-.6153-.31372-.55031-.70621l.30844-2.83729C34.23839 38.91673 34.61564 38.56395 35.00895 38.56395zM10.84994 30.42005h3.93726c.44276 0 .87568.44669.96544.98861l.38786 2.82895c.08129.49078-.1875.88242-.59908.88242h-3.66c-.41158 0-.84638-.39164-.97312-.88242l-.60474-2.82895C10.1636 30.86674 10.40717 30.42005 10.84994 30.42005z" opacity=".1"></path><path fill="#010101" d="M32.38015 31.40558l-.27567 2.8345c-.05111.48764-.43909.88388-.84757.88388h-3.65572c-.28589 0-.53095-.19304-.64333-.46737.07149.03051.14297.04068.21446.04068h3.65572c.40842 0 .78624-.39624.84751-.88388l.27573-2.83456c.02044-.19304 0-.3759-.06127-.51809C32.22701 30.56232 32.43125 30.94839 32.38015 31.40558zM17.13445 42.18489c.06127.38607-.1838.70101-.5514.70101h-3.2779c-.30633 0-.62288-.22354-.77608-.51815.11237.06096.22468.09146.34722.09146h3.2779c.3676 0 .61266-.31495.5514-.70101l-.30633-2.83456c-.02044-.10157-.05104-.19304-.09193-.27427.26551.12191.46975.38601.52079.70102L17.13445 42.18489zM31.62451 39.35038l-.22462 2.8345c-.04089.38607-.37782.70101-.74548.70101h-3.27784c-.28595 0-.53102-.19304-.61272-.4572.06127.02034.12253.03051.1838.03051h3.2779c.3676 0 .70459-.31495.74542-.70101l.22468-2.83456c.01022-.12191 0-.23365-.03066-.33522C31.47137 38.66965 31.66539 38.97442 31.62451 39.35038zM24.26209 42.18489c.01016.38607-.27573.70101-.64333.70101h-3.2779c-.29611 0-.56162-.20321-.68415-.47753.08165.03051.16336.05085.25529.05085h3.27784c.36766 0 .65355-.31495.64333-.70101l-.04082-2.83456c0-.11174-.02044-.21331-.06127-.30478.27573.10157.47991.38607.49013.73152L24.26209 42.18489zM40.69228 31.40558l-.61266 2.8345c-.12253.48764-.56168.88388-.9701.88388H35.4538c-.27573 0-.49013-.1727-.57184-.43686.04082 0 .09193.01017.14298.01017h3.65572c.40842 0 .84751-.39624.97004-.88388l.61272-2.83456c.05104-.20314.05104-.38607.01022-.5486C40.63102 30.51153 40.81482 30.91788 40.69228 31.40558zM24.11911 34.24008c.01022.48764-.31655.88388-.72504.88388h-3.6455c-.29611 0-.58206-.20321-.7352-.49781.09187.05079.19402.07113.29611.07113h3.65572c.40842 0 .7352-.39624.72497-.88388l-.06127-2.83456c0-.18287-.05104-.35556-.12253-.49781.30639.13208.54124.49781.55146.92456L24.11911 34.24008zM39.01759 39.35038l-.47991 2.8345c-.10215.38607-.47997.70101-.84757.70101h-3.2779c-.28589 0-.50035-.18287-.5514-.43686.04082.01017.08171.01017.12253.01017h3.2779c.3676 0 .74541-.31495.84757-.70101l.47991-2.83456c.03067-.12191.04082-.24382.02044-.34539C38.93594 38.62903 39.11974 38.95414 39.01759 39.35038zM16.14397 34.24008c.08165.48764-.19402.88388-.6025.88388h-3.65572c-.31655 0-.64326-.22348-.83729-.5486.13269.08123.26545.12191.40842.12191h3.65572c.40842 0 .68415-.39624.60244-.88388l-.38798-2.83456c-.03066-.16253-.09193-.31495-.17364-.45713.29617.16253.54124.49781.6025.88388L16.14397 34.24008z" opacity=".1"></path><path fill="#8E96CB" d="M45.3648,18.22816H5.62944c-2.2805,0-4.12927,1.84871-4.12927,4.12921s1.84877,4.12927,4.12927,4.12927
			H45.3648c2.2805,0,4.12921-1.84877,4.12921-4.12927S47.6453,18.22816,45.3648,18.22816z"></path><path fill="#010101" d="M49.49401,22.35336c0,2.28591-1.85849,4.13496-4.15607,4.13496H45.1337
				c1.37858-0.6604,2.33846-2.07253,2.33846-3.70827c0-1.13787-0.46975-2.1741-1.21517-2.9259
				c-0.74541-0.75186-1.787-1.20899-2.93068-1.20899H3.83863c1.58185-0.77213,0.2833-0.2632,41.49931-0.41658
				C47.61236,18.22857,49.49401,20.05766,49.49401,22.35336z" opacity=".1"></path><path fill="#FFF" d="M3.7467,22.61752c0,1.13787,0.46975,2.17417,1.21517,2.9158
				c0.41864,0.41658,0.93944,0.7518,1.51128,0.955H5.64601c-2.35857,0-4.14585-1.91962-4.14585-4.13496
				c0-2.27574,1.85849-4.12479,4.14585-4.12479h39.69192c0.50035,0,0.99054,0.09146,1.42963,0.25399H7.89255
				C5.60519,18.48256,3.7467,20.33161,3.7467,22.61752z" opacity=".2"></path><g><path fill="#F5C560" d="M49.49732,38.58853c0,4.74017-3.83435,8.57452-8.5621,8.57452
						c-2.23357,0-4.26862-0.84379-5.79488-2.25841h-0.01242c-1.7-1.56352-2.76714-3.82193-2.76714-6.31611
						c0-4.72775,3.83427-8.57444,8.57444-8.57444c2.49418,0,4.74017,1.06714,6.30369,2.77955
						c0.01242,0,0.01242,0.01242,0.01242,0.02485C48.65353,34.34475,49.49732,36.36738,49.49732,38.58853z"></path><path fill="#010101" d="M49.49732,38.58853c0,4.74017-3.83435,8.57452-8.5621,8.57452
						c-2.23357,0-4.26862-0.84379-5.79488-2.25841c1.30291,0.7445,2.81682,1.16643,4.41752,1.16643
						c4.88907,0,8.85989-3.97083,8.85989-8.85989c0-1.6007-0.42193-3.1022-1.16643-4.39268
						C48.65353,34.34475,49.49732,36.36738,49.49732,38.58853z" opacity=".1"></path><path fill="#E8AE36" d="M46.78064,38.6054c0,2.47054-1.53104,4.58152-3.68846,5.4282
						c-0.66107,0.26682-1.39179,0.41761-2.15735,0.41761c-3.23602,0-5.85735-2.60972-5.85735-5.84581
						c0-3.22441,2.62133-5.84574,5.85735-5.84574c0.7887,0,1.53104,0.15079,2.2154,0.44076
						C45.28435,34.07032,46.78064,36.16969,46.78064,38.6054z"></path><path fill="#FFF" d="M39.86865,43.10188v-1.01709c-0.58398-0.01025-1.18848-0.19141-1.54102-0.44336l0.24219-0.6748
							c0.3623,0.2417,0.88574,0.43311,1.4502,0.43311c0.71484,0,1.19824-0.4126,1.19824-0.98682
							c0-0.55371-0.39258-0.89648-1.1377-1.19824c-1.02734-0.40332-1.66211-0.86621-1.66211-1.74268
							c0-0.83545,0.59473-1.47021,1.52051-1.62109v-1.01709h0.625v0.97656c0.60352,0.02051,1.0166,0.18164,1.30859,0.35254
							l-0.25195,0.66455c-0.21094-0.12061-0.62402-0.34229-1.26855-0.34229c-0.77539,0-1.06738,0.46338-1.06738,0.86621
							c0,0.52344,0.37305,0.78564,1.24902,1.14795c1.03711,0.42285,1.56055,0.94678,1.56055,1.84326
							c0,0.79541-0.55371,1.54053-1.59082,1.71191v1.04736H39.86865z"></path><path fill="#FFF" d="M47.34698,32.91427c-1.50941-1.33232-3.49099-2.15028-5.67492-2.15028
					c-4.73061,0-8.56725,3.83674-8.56725,8.56724c0,2.17555,0.81791,4.16556,2.15017,5.67492
					c-1.77076-1.5684-2.89222-3.86201-2.89222-6.41697c0-4.73051,3.83673-8.56724,8.56714-8.56724
					C43.48492,30.02194,45.77848,31.14346,47.34698,32.91427z" opacity=".3"></path><path fill="#2A3D66" d="M45.70026,30.30568l0.54431-2.89935c2.40259-0.38428,4.24957-2.45441,4.24957-4.96362v-0.1709
				c0-2.78076-2.2627-5.04346-5.04395-5.04346H34.60236L32.914,10.5193c1.07477-0.61224,1.86462-1.68799,2.0528-2.97162
				c0.33109-2.24877-1.23008-4.33646-3.48877-4.66504c-2.27539-0.33008-4.35791,1.27344-4.68066,3.47461
				c-0.33046,2.2445,1.22561,4.33634,3.48877,4.66455c0.20215,0.0293,0.40186,0.04346,0.6001,0.04346
				c0.03418,0,0.06647-0.00842,0.10046-0.00928l1.55334,6.17236H18.4541l1.55334-6.17236
				c0.034,0.00085,0.06628,0.00928,0.10046,0.00928c0.19824,0,0.39844-0.01416,0.59961-0.04346
				c2.26235-0.32795,3.82-2.41867,3.48926-4.66406c-0.32275-2.20166-2.40527-3.80518-4.68066-3.4751
				c-2.25898,0.32862-3.81891,2.41534-3.48877,4.66455c0.18817,1.28369,0.97803,2.35962,2.05286,2.97198l-1.68842,6.70917H5.54395
				C2.7627,17.22834,0.5,19.49104,0.5,22.2718v0.1709c0,2.50922,1.84692,4.57941,4.24951,4.96362l3.146,16.75659
				c0.43457,2.31641,2.46777,3.99756,4.83398,3.99756c0.32793-0.00001,28.0657-0.00049,28.20068-0.00049
				c5.27686,0,9.56982-4.29346,9.56982-9.57031C50.5,35.05055,48.56409,31.96138,45.70026,30.30568z M28.77588,6.64778
				c0.15137-1.03076,1.05518-1.80859,2.10205-1.80859c0.10303,0,0.20703,0.00732,0.31201,0.02295
				c1.16414,0.16889,1.96785,1.23989,1.79834,2.39502c-0.1665,1.13232-1.23438,1.9624-2.41455,1.78516
				C29.40309,8.87233,28.60752,7.79507,28.77588,6.64778z M19.8042,4.86213c1.1596-0.17259,2.246,0.64114,2.41406,1.78613
				c0.16914,1.15159-0.63139,2.22474-1.79834,2.39404c-1.17236,0.17236-2.24805-0.65332-2.41406-1.78516
				C17.83689,6.10574,18.63724,5.03143,19.8042,4.86213z M2.5,22.4427v-0.1709c0-1.67822,1.36572-3.04346,3.04395-3.04346H45.4502
				c1.67822,0,3.04395,1.36523,3.04395,3.04346v0.1709c0,1.67822-1.36572,3.04395-3.04395,3.04395H5.54395
				C3.86572,25.48664,2.5,24.12092,2.5,22.4427z M12.72949,46.16047c-1.40479,0-2.61084-0.99512-2.86816-2.3667L6.7995,27.48664
				h37.39514l-0.37219,1.98236c-0.91315-0.29022-1.88428-0.44916-2.89227-0.44916c-5.27686,0-9.57031,4.29297-9.57031,9.56982
				c0,3.08105,1.46991,5.81915,3.73846,7.5708H12.72949z M40.93018,46.15998c-4.17432,0-7.57031-3.396-7.57031-7.57031
				c0-4.17383,3.396-7.56982,7.57031-7.56982c4.17383,0,7.56982,3.396,7.56982,7.56982
				C48.5,42.76399,45.104,46.15998,40.93018,46.15998z"></path></g></svg>